<svg xmlns="http://www.w3.org/2000/svg" xmlns:xlink="http://www.w3.org/1999/xlink" width="80px" height="80px" viewBox="0 0 80 80"><title>bitcointalk</title><desc>Created with Sketch.</desc><g id="Page-1" stroke="none" stroke-width="1" fill="none" fill-rule="evenodd"><g id="resources" transform="translate(-323.000000, -671.000000)" fill="#4D4D4D" fill-rule="nonzero"><g id="Group" transform="translate(98.000000, 296.000000)"><g id="bitcointalk" transform="translate(205.000000, 355.000000)"><g transform="translate(20.000000, 20.000000)"><path d="M40,0 C62.09139,0 80,17.90861 80,40 C80,62.09139 62.09139,80 40,80 C17.90861,80 0,62.09139 0,40 C0,17.90861 17.90861,0 40,0 Z M61.4492,32.7736 L60.16936,32.7736 L60.16936,46.8412 C60.16936,49.03152 58.89408,51.01208 56.33744,51.01208 L31.28936,51.01208 L31.28936,51.68088 C31.28936,53.61736 33.49184,55.57208 35.7536,55.57208 L54.90408,55.57208 L62.23048,59.87976 L61.168,55.57208 L61.4492,55.57208 C63.70944,55.57208 64.72936,53.62192 64.72936,51.68088 L64.72936,36.11304 C64.72936,34.17656 63.70944,32.7736 61.4492,32.7736 Z M52.59824,23 L23.50544,23 C20.94576,23 18,25.27392 18,27.46576 L18,45.09776 C18,47.11632 20.49584,48.574 22.88984,48.79896 L21.33184,54.71328 L31.3152,48.84 L52.59824,48.84 C55.15792,48.84 57.52,47.28808 57.52,45.09776 L57.52,27.46576 C57.52,25.27392 55.1564,23 52.59824,23 Z M27.94384,32.62768 C29.39392,32.62768 30.57192,33.80416 30.57192,35.25576 C30.57192,36.70736 29.39392,37.88384 27.94384,37.88384 C26.49224,37.88384 25.31576,36.70736 25.31576,35.25576 C25.31576,33.80416 26.49224,32.62768 27.94384,32.62768 Z M37.76,32.62768 C39.2116,32.62768 40.38808,33.80416 40.38808,35.25576 C40.38808,36.70736 39.2116,37.88384 37.76,37.88384 C36.3084,37.88384 35.13192,36.70736 35.13192,35.25576 C35.13192,33.80416 36.3084,32.62768 37.76,32.62768 Z M47.57768,32.62768 C49.02624,32.62768 50.20576,33.80416 50.20576,35.25576 C50.20576,36.70736 49.02624,37.88384 47.57768,37.88384 C46.12608,37.88384 44.94808,36.70736 44.94808,35.25576 C44.94808,33.80416 46.12608,32.62768 47.57768,32.62768 Z"></path></g></g></g></g></g></svg>