<svg xmlns="http://www.w3.org/2000/svg" xmlns:xlink="http://www.w3.org/1999/xlink" width="51px" height="50px" viewBox="0 0 51 50"><title>block explore</title><desc>Created with Sketch.</desc><g id="Page-1" stroke="none" stroke-width="1" fill="none" fill-rule="evenodd"><g id="resources" transform="translate(-1209.000000, -431.000000)" fill="#A2D729" fill-rule="nonzero"><g id="Group" transform="translate(779.000000, 296.000000)"><path d="M432.814212,142.442311 C437.938179,134.756361 448.351402,132.690245 456.037353,137.814212 C463.723303,142.938179 465.789419,153.351402 460.665452,161.037353 C460.500162,161.285286 460.252229,161.53322 460.086939,161.781154 L460.086939,161.781154 L464.715038,166.161319 L464.962972,165.913386 C465.541485,165.252229 466.615865,165.169584 467.277022,165.830741 L467.277022,165.830741 L480.500162,178.31008 C481.161319,178.971237 481.161319,179.962972 480.582807,180.624129 L480.582807,180.624129 L477.524956,183.84727 C476.946443,184.508427 475.872063,184.591072 475.210906,183.929915 L475.210906,183.929915 L461.987766,171.450576 C461.326609,170.872063 461.243964,169.797683 461.905121,169.136526 L461.905121,169.136526 L462.153055,168.888592 L457.524956,164.508427 C451.987766,169.219171 443.805948,169.880328 437.442311,165.665452 C429.756361,160.541485 427.690245,150.128262 432.814212,142.442311 Z M453.805948,141.037353 C447.855534,137.07041 439.92165,138.640658 435.954708,144.591072 C431.987766,150.541485 433.640658,158.475369 439.508427,162.442311 C445.45884,166.409253 453.392724,164.839005 457.359667,158.888592 C461.326609,152.938179 459.756361,145.004295 453.805948,141.037353 Z M446.037353,148.020824 C446.450576,147.6076 447.111733,147.6076 447.524956,148.020824 L447.524956,148.020824 L453.475369,153.971237 C453.888592,154.38446 453.888592,155.045617 453.475369,155.45884 L453.475369,155.45884 L447.524956,161.409253 C447.111733,161.822476 446.450576,161.822476 446.037353,161.409253 L446.037353,161.409253 L437.111733,152.483634 C436.69851,152.07041 436.69851,151.409253 437.111733,150.99603 C437.524956,150.582807 438.186113,150.582807 438.599336,150.99603 L438.599336,150.99603 L446.781154,159.177848 L451.243964,154.715038 L446.037353,149.508427 C445.624129,149.095204 445.624129,148.434047 446.037353,148.020824 Z M446.037353,142.07041 C446.450576,141.657187 447.111733,141.657187 447.524956,142.07041 L447.524956,142.07041 L456.450576,150.99603 C456.863799,151.409253 456.822476,152.07041 456.450576,152.483634 C456.037353,152.896857 455.376195,152.896857 454.962972,152.483634 L454.962972,152.483634 L446.781154,144.301815 L442.318344,148.764625 L447.524956,153.971237 C447.938179,154.38446 447.938179,155.045617 447.524956,155.45884 C447.111733,155.872063 446.450576,155.872063 446.037353,155.45884 L446.037353,155.45884 L440.086939,149.508427 C439.673716,149.095204 439.673716,148.434047 440.086939,148.020824 L440.086939,148.020824 Z" id="block-explore"></path></g></g></g></svg>