<svg xmlns="http://www.w3.org/2000/svg" xmlns:xlink="http://www.w3.org/1999/xlink" width="80px" height="80px" viewBox="0 0 80 80"><title>discord</title><desc>Created with Sketch.</desc><g id="Page-1" stroke="none" stroke-width="1" fill="none" fill-rule="evenodd"><g id="resources" transform="translate(-118.000000, -431.000000)" fill="#4D4D4D"><g id="Group" transform="translate(98.000000, 296.000000)"><g id="discord" transform="translate(0.000000, 115.000000)"><path d="M60,20 C82.09139,20 100,37.90861 100,60 C100,82.09139 82.09139,100 60,100 C37.90861,100 20,82.09139 20,60 C20,37.90861 37.90861,20 60,20 Z M53.0920733,44 C49.1889061,44.1842147 45.4087998,45.6158261 42.2386469,47.8342975 C41.5778639,48.2316749 41.3558195,49.0027451 41.0240904,49.6422333 C37.8913908,56.3765966 36.0160514,63.7399215 36,71.1637741 C38.6993116,75.0375462 43.5414861,77.03496 48.217796,77.1191724 C49.084572,76.0454638 49.9620489,74.9822818 50.8555772,73.9296264 C48.1321885,73.0059212 45.4489283,71.550625 43.7983086,69.1558338 C48.902656,72.3532748 55.0423192,73.9375213 61.0829987,73.684884 C66.1204653,73.4506681 71.0295206,71.7953674 75.3045454,69.1979401 C73.5201639,71.5848363 70.8181771,73.153293 67.9583514,73.9769958 C68.8411788,75.0322829 69.7052795,76.1033599 70.612184,77.1428571 C75.152057,76.9928537 79.8230164,75.1507067 82.5865337,71.484834 C83.0306226,70.9453481 82.7898515,70.203226 82.8085782,69.5716328 C82.498251,62.5083146 80.6255868,55.5449988 77.5677938,49.1580118 C77.3350484,48.697475 77.1344058,48.1790422 76.6715902,47.8948252 C73.6485752,45.7737244 70.0771371,44.3447447 66.3612364,44.0394746 C65.8154886,43.9184192 65.443631,44.4157989 65.0075678,44.6368566 C67.9369495,45.310556 70.6951163,46.6342703 73.257991,48.1711473 C74.0418347,48.5895778 74.627711,49.2922253 75.4409823,49.6632864 C74.9326878,49.8132898 74.5742063,49.3080152 74.1381431,49.1422219 C68.2874053,46.1526804 61.4816087,45.1210781 54.9647374,45.9658341 C51.754456,46.250051 48.6190812,47.1158602 45.6602718,48.3579936 C44.715914,48.7474761 43.8304114,49.2711722 42.856626,49.6027587 C45.8983677,47.1553347 49.5741399,45.5842465 53.3194682,44.4973797 C53.2632883,44.3736927 53.1482532,44.123687 53.0920733,44 Z M50.4970958,58.9582341 C52.2948534,58.216112 54.4885457,59.0871844 55.4034759,60.7424851 C56.853453,63.1004333 55.6683241,66.7794641 52.7951222,67.3926359 C50.3633341,68.0426507 47.9235202,65.9110234 47.819186,63.539917 C47.6024921,61.6635586 48.6699106,59.6477234 50.4970958,58.9582341 Z M65.2082103,58.9345493 C67.2708161,58.1134781 69.71063,59.4345607 70.3767634,61.4609224 C71.3692754,63.8636085 69.8711441,67.0847342 67.1424049,67.4531636 C64.7534205,67.8742258 62.5410015,65.76102 62.4580693,63.4635994 C62.2734781,61.595136 63.3729995,59.5898274 65.2082103,58.9345493 Z"></path></g></g></g></g></svg>