<svg xmlns="http://www.w3.org/2000/svg" xmlns:xlink="http://www.w3.org/1999/xlink" width="80px" height="80px" viewBox="0 0 80 80"><title>forum</title><desc>Created with Sketch.</desc><g id="Page-1" stroke="none" stroke-width="1" fill="none" fill-rule="evenodd"><g id="resources" transform="translate(-528.000000, -671.000000)" fill="#4D4D4D"><g id="Group" transform="translate(98.000000, 296.000000)"><g id="forum" transform="translate(410.000000, 355.000000)"><path d="M60,20 C82.09139,20 100,37.90861 100,60 C100,82.09139 82.09139,100 60,100 C37.90861,100 20,82.09139 20,60 C20,37.90861 37.90861,20 60,20 Z M72.228656,61.0505736 L72.228656,61.0505736 L72.0775369,61.0570603 C71.3779297,61.1152171 70.7631052,61.5596311 70.4921845,62.2163428 C70.2019124,62.9199624 70.3634289,63.7291205 70.9015924,64.2673757 L70.9015924,64.2673757 L78.1048935,71.4812933 L72.1304533,77.4636959 L60.0913325,65.4245751 L59.9557025,65.3213827 C59.2144804,64.8082707 58.2007462,64.8905161 57.5519462,65.539316 C56.8625963,66.2286659 56.8128334,67.3299925 57.4372054,68.0787023 L57.4372054,68.0787023 L70.8086979,81.4501948 L70.9305076,81.561765 C71.2669549,81.8437321 71.6933007,82 72.1357615,82 C72.5782224,82 73.0045682,81.8437321 73.3410155,81.561765 L73.3410155,81.561765 L73.4628251,81.4501948 L82.1073172,72.8136651 L82.1744253,72.7438928 L82.1744253,72.7438928 L82.2373694,72.6703422 C82.511443,72.3346176 82.6614195,71.9146833 82.6620298,71.4812933 L82.6620298,71.4812933 L82.6620298,71.3008126 L82.6389076,71.1370802 C82.5684517,70.758875 82.3835644,70.409833 82.1073172,70.1383049 L82.1073172,70.1383049 L73.5610278,61.5920155 L73.4396495,61.4796411 C73.1041375,61.1956789 72.6770791,61.0386488 72.2339642,61.039949 L72.2339642,61.039949 Z M70.7291028,44 L43.2080138,44 L43.005453,44.0049316 C40.6339561,44.1194442 38,46.2086688 38,48.2245015 L38,48.2245015 L38,64.9039494 L38.006842,65.081392 C38.1474687,66.8985029 40.4317754,68.199039 42.625671,68.4051956 L42.625671,68.4051956 L41.1518405,74 L50.5958589,68.4440184 L56.975,68.444 L56.8845772,68.337319 C56.8775244,68.329075 56.8705285,68.3207825 56.86359,68.312442 C56.0293791,67.3096769 56.1660192,65.8205136 57.1687844,64.9863026 C58.213456,64.1172292 59.7469649,64.1821942 60.7143913,65.1365074 L60.7143913,65.1365074 L64.067,68.444 L64.72,68.444 L60.9323638,64.5592036 C59.7809064,63.3783322 59.7986633,61.4894083 60.972117,60.3303924 L60.972117,60.3303924 L69.5640749,51.8441469 C69.5710163,51.837291 69.577991,51.8304689 69.5849989,51.8236811 C70.7751041,50.6709384 72.6743575,50.7012267 73.8271002,51.8913319 L73.8271002,51.8913319 L75.384,53.499 L75.3849693,48.2245015 L75.3795415,48.046641 C75.2570529,46.0299111 73.0799189,44 70.7291028,44 L70.7291028,44 Z M71.6261691,52.0026541 L71.6261691,52.0026541 L71.4642623,52.0091223 C71.0885787,52.0405836 70.7299148,52.1857964 70.4371201,52.4273145 C70.3868673,52.4678527 70.3390124,52.5112766 70.2937973,52.5573667 L70.2937973,52.5573667 L61.6493052,61.2018588 L61.5625337,61.2948425 L61.5625337,61.2948425 L61.4819423,61.3931464 L61.4077796,61.4964669 L61.3221955,61.6392291 C60.928961,62.3658807 61.0548884,63.2740909 61.6493052,63.8666025 L61.6493052,63.8666025 L70.1955946,72.4128919 L70.3312246,72.5160843 C71.0724467,73.0291963 72.0861809,72.946951 72.7349809,72.298151 C73.4243308,71.6088011 73.4740937,70.5074745 72.8497217,69.7587648 L72.8497217,69.7587648 L65.6437665,62.5342307 L71.6261691,56.5518281 L83.6785605,68.5909488 L83.7887445,68.7120117 C84.2475889,69.1742031 84.9171024,69.3694619 85.5585153,69.2181308 C86.2533794,69.0541887 86.7959276,68.5116405 86.9598696,67.8167765 C87.1238116,67.1219125 86.8809919,66.3940693 86.3326876,65.9368217 L86.3326876,65.9368217 L72.9585409,52.5547126 L72.8887687,52.4876045 L72.8887687,52.4876045 L72.8152181,52.4246603 C72.4794935,52.1505868 72.0595592,52.0006103 71.6261691,52 L71.6261691,52 Z M47.4066334,53.1075537 C48.7783742,53.1075537 49.8927339,54.2204755 49.8927339,55.5936541 C49.8927339,56.9668328 48.7783742,58.0797546 47.4066334,58.0797546 C46.0334548,58.0797546 44.920533,56.9668328 44.920533,55.5936541 C44.920533,54.2204755 46.0334548,53.1075537 47.4066334,53.1075537 Z M56.6924847,53.1075537 C58.0656633,53.1075537 59.1785851,54.2204755 59.1785851,55.5936541 C59.1785851,56.9668328 58.0656633,58.0797546 56.6924847,58.0797546 C55.319306,58.0797546 54.2063842,56.9668328 54.2063842,55.5936541 C54.2063842,54.2204755 55.319306,53.1075537 56.6924847,53.1075537 Z"></path></g></g></g></g></svg>