<svg xmlns="http://www.w3.org/2000/svg" xmlns:xlink="http://www.w3.org/1999/xlink" width="80px" height="80px" viewBox="0 0 80 80"><title>github</title><desc>Created with Sketch.</desc><g id="Page-1" stroke="none" stroke-width="1" fill="none" fill-rule="evenodd"><g id="resources" transform="translate(-118.000000, -671.000000)" fill="#4D4D4D" fill-rule="nonzero"><g id="Group" transform="translate(98.000000, 296.000000)"><g id="github" transform="translate(0.000000, 355.000000)"><path d="M94.6342687,40.421371 C91.0573577,34.1390805 86.2055064,29.1653824 80.0774377,25.4991546 C73.9484569,21.8327399 67.2574371,20 59.9996352,20 C52.7427453,20 46.0495364,21.8333009 39.9218326,25.4991546 C33.7932167,29.1651954 28.9415478,34.1390805 25.3646368,40.421371 C21.7882731,46.7034745 20,53.5635802 20,61.001501 C20,69.9361313 22.5429487,77.9703797 27.6301232,85.1063033 C32.7167504,92.2427878 39.2879196,97.1809569 47.3430837,99.9213714 C48.2807277,100.099765 48.9748396,99.9742911 49.4261491,99.548129 C49.8776411,99.121406 50.1031135,98.5869737 50.1031135,97.9470762 C50.1031135,97.8403019 50.0941748,96.8797076 50.0768448,95.0641713 C50.0589676,93.248635 50.0505762,91.6647857 50.0505762,90.3133714 L48.8526175,90.525798 C48.0888208,90.6692233 47.1252731,90.7299967 45.9619743,90.7127931 C44.7992229,90.6961506 43.5921431,90.5712378 42.3423769,90.3389898 C41.0920633,90.1087987 39.9291294,89.5749274 38.8526631,88.7384979 C37.7767441,87.9020684 37.0129473,86.8072116 36.5614554,85.4556103 L36.0406434,84.2270519 C35.6934962,83.4091349 35.1469629,82.5005253 34.4003138,81.5045889 C33.6536646,80.5077175 32.8986241,79.8319169 32.1348274,79.476065 L31.7701678,79.2084749 C31.527183,79.0306425 31.3017107,78.816159 31.0932034,78.5672684 C30.8848787,78.3183778 30.7289087,78.0693002 30.6247463,77.8198486 C30.5204015,77.57021 30.6068691,77.3654503 30.8850611,77.2048214 C31.1632531,77.0441925 31.6660054,76.9662155 32.395507,76.9662155 L33.436766,77.1257224 C34.1312428,77.2683998 34.9902633,77.6945618 36.014922,78.4068265 C37.0390335,79.1185302 37.8809064,80.0437824 38.5407232,81.1822092 C39.3397272,82.6418936 40.3023628,83.754141 41.4313664,84.5195124 C42.5594578,85.2848837 43.6968528,85.6669149 44.8424567,85.6669149 C45.9880605,85.6669149 46.9775121,85.5779052 47.811176,85.4008207 C48.6439279,85.2228013 49.425237,84.9552112 50.1547386,84.5995463 C50.4672258,82.2138616 51.3180373,80.3811218 52.7064436,79.1000177 C50.7275406,78.8868432 48.9483885,78.5657724 47.3680754,78.1388624 C45.7886744,77.7113914 44.1565537,77.0176392 42.4728079,76.0557359 C40.7881499,75.0951416 39.3906226,73.9022993 38.2798612,72.4792659 C37.1689173,71.0554845 36.2571771,69.1862805 35.5459176,66.873337 C34.8342933,64.5594585 34.47839,61.8902891 34.47839,58.8650809 C34.47839,54.5576466 35.8501959,50.8921668 38.5932605,47.8665846 C37.3082869,44.6282019 37.4295969,40.9978772 38.9575552,36.9759846 C39.9645191,36.6552878 41.4578174,36.8959506 43.4367204,37.6964771 C45.4159883,38.4973775 46.8651407,39.1834628 47.7856371,39.7523022 C48.7061335,40.3209546 49.4436616,40.8028412 49.9993159,41.1936612 C53.2290797,40.2685959 56.5620938,39.8059698 59.9992703,39.8059698 C63.4364468,39.8059698 66.7701906,40.2685959 70.0001368,41.1936612 L71.9792222,39.9129311 C73.3326036,39.0583631 74.930794,38.2752272 76.7699626,37.5633365 C78.6102256,36.8518198 80.0174212,36.6558488 80.99009,36.9765456 C82.5519786,40.9986252 82.6911658,44.6287629 81.4058274,47.8671456 C84.1487096,50.8927278 85.5210628,54.5591426 85.5210628,58.8656419 C85.5210628,61.8908501 85.1638825,64.5684343 84.4533527,66.9000773 C83.7419108,69.2320944 82.8223265,71.0994284 81.694235,72.5060062 C80.5648666,73.912397 79.1584007,75.0958896 77.4746549,76.0562969 C75.7905442,77.0174522 74.1578763,77.7112044 72.5784752,78.1386754 C70.9983445,78.5661464 69.2191925,78.8874041 67.2402895,79.1009527 C69.0451629,80.7020055 69.947782,83.2292455 69.947782,86.6815508 L69.947782,97.9455802 C69.947782,98.5854778 70.164863,99.119723 70.5993898,99.5466331 C71.0333694,99.9727951 71.7187251,100.098269 72.656369,99.9196885 C80.7126276,97.1796479 87.2837969,92.2412919 92.3702417,85.1048073 C97.4561392,77.9688838 100,69.9346353 100,61 C99.9981758,53.5630192 98.2089906,46.7034745 94.6342687,40.421371 Z"></path></g></g></g></g></svg>