<svg xmlns="http://www.w3.org/2000/svg" xmlns:xlink="http://www.w3.org/1999/xlink" width="63px" height="50px" viewBox="0 0 63 50"><title>nut</title><desc>Created with Sketch.</desc><g id="Page-1" stroke="none" stroke-width="1" fill="none" fill-rule="evenodd"><g id="resources" transform="translate(-799.000000, -431.000000)" fill="#A2D729" fill-rule="nonzero"><g id="Group" transform="translate(779.000000, 296.000000)"><g id="nut" transform="translate(20.000000, 135.000000)"><path d="M0.0576245489,26.0058542 C1.10158059,10.6212388 14.5631191,-1.02711283 29.8927894,0.0717882716 C39.3433388,0.731128931 47.8048773,5.01684322 54.0136685,12.1047553 C60.2224597,19.1926674 63.2444377,28.1487113 62.5850971,37.5443157 C62.5850971,37.5443157 59.1785037,33.0388212 52.0356465,32.5443157 C44.8378443,32.1047553 40.7719103,33.3684916 40.7719103,33.3684916 C41.2664158,25.1267333 35.0026795,17.8739861 26.5960861,17.3245355 C19.8927894,16.775085 14.0136685,21.8849751 13.519163,28.5882718 C13.0796026,33.9728872 17.2004817,38.753107 22.6400421,39.1377223 C27.0356465,39.4124476 30.8818004,36.1157443 31.2114707,31.7201399 C31.2114707,31.6651949 31.2114707,31.5553048 31.2114707,31.5003597 C31.2114707,29.8520081 30.7169652,28.2586015 29.5631191,26.9948652 C28.4092729,25.6761839 26.8158663,24.9069531 25.0576245,24.797063 C22.2004817,24.5772828 19.6180641,26.775085 19.3982839,29.7421179 C19.2334487,30.8959641 19.6730092,32.0498102 20.4422399,32.9289311 C21.2664158,33.808052 22.3103718,34.3025575 23.464218,34.4124476 C24.3982839,34.4673927 25.3872949,34.1926674 26.1015806,33.5333267 C26.8158663,32.8739861 27.2554267,31.9948652 27.3653169,31.0058542 C27.3653169,30.9509092 27.3653169,30.786074 27.3653169,30.7311289 C27.3653169,30.0168432 27.0905916,29.3575026 26.6510311,28.808052 C26.1565256,28.2036564 25.3872949,27.8739861 24.5631191,27.764096 C23.2444377,27.7091509 21.9807015,28.6981619 21.9257564,30.1267333 C21.8708114,30.7311289 22.0905916,31.2256344 22.4202619,31.6651949 C22.7499322,32.1047553 23.2993828,32.3245355 23.9037784,32.3794806 C24.3982839,32.3794806 24.8378443,32.2146454 25.2224597,31.9399201 C25.6070751,31.5553048 25.8268553,31.1157443 25.8268553,30.6761839 C25.8268553,30.6212388 25.8268553,30.4564037 25.8268553,30.4014586 C25.7719103,30.1267333 25.6620202,29.797063 25.4422399,29.5772828 C25.2774048,29.2476124 24.8927894,29.0278322 24.4532289,29.0278322 C24.0136685,29.0278322 23.519163,29.2476124 23.2993828,29.6322278 C23.519163,29.1926674 24.0136685,28.808052 24.6180641,28.9179421 C25.1125696,28.9728872 25.55213,29.1926674 25.9367454,29.5772828 C26.1565256,29.8520081 26.3213608,30.1816784 26.3763059,30.5113487 C26.3763059,30.6761839 26.3763059,30.786074 26.3763059,30.9509092 C26.3213608,31.6102498 25.9916905,32.2146454 25.497185,32.6542059 C25.0026795,33.0937663 24.3433388,33.3135465 23.6290531,33.2586015 C22.8048773,33.2036564 21.9807015,32.819041 21.4312509,32.1597004 C20.8268553,31.5003597 20.55213,30.6761839 20.6070751,29.797063 C20.8268553,27.4893707 22.8048773,25.7311289 25.1675147,25.8959641 C26.6510311,25.9509092 27.9697125,26.6102498 28.9037784,27.764096 C29.7828993,28.808052 30.2224597,30.0717883 30.2224597,31.3904696 C30.2224597,31.5553048 30.2224597,31.6102498 30.2224597,31.775085 C30.0026795,35.5113487 26.6510311,38.3684916 22.8048773,38.0937663 C18.0246575,37.7091509 14.3433388,33.5333267 14.6180641,28.6432168 C15.1125696,22.5443157 20.497185,17.8739861 26.5960861,18.3135465 C34.1785037,18.808052 40.0026795,25.4564037 39.6180641,33.0388212 C39.6180641,33.0937663 39.6180641,33.2586015 39.6180641,33.3135465 C38.9587234,43.0388212 30.3872949,50.4014586 20.6620202,49.7421179 C8.46421796,48.9179421 -0.82149633,38.2036564 0.0576245489,26.0058542 Z" id="Path"></path></g></g></g></g></svg>