<svg xmlns="http://www.w3.org/2000/svg" xmlns:xlink="http://www.w3.org/1999/xlink" width="42px" height="50px" viewBox="0 0 42 50"><title>pools</title><desc>Created with Sketch.</desc><g id="Page-1" stroke="none" stroke-width="1" fill="none" fill-rule="evenodd"><g id="resources" transform="translate(-1209.000000, -671.000000)" fill="#A2D729" fill-rule="nonzero"><g id="Group" transform="translate(779.000000, 296.000000)"><g id="pools" transform="translate(430.000000, 375.000000)"><path d="M33.6614173,24.9606299 C33.7401575,25.8661417 34.0944882,26.6535433 34.7637795,27.3228346 C35.511811,28.0708661 36.4173228,28.4251969 37.4015748,28.4251969 C38.4251969,28.4251969 39.2913386,28.0708661 40.0393701,27.3228346 C40.7874016,26.5748031 41.1417323,25.6692913 41.1417323,24.6850394 C41.1417323,23.7007874 40.7874016,22.7952756 40.0393701,22.0472441 C39.2913386,21.2992126 38.3858268,20.9448819 37.4015748,20.9448819 C36.3779528,20.9448819 35.511811,21.2992126 34.7637795,22.0472441 C34.0944882,22.7165354 33.7401575,23.4645669 33.6614173,24.4094488 L28.1102362,24.4094488 C28.0314961,22.8740157 27.480315,21.5354331 26.4566929,20.3543307 L34.9606299,11.8110236 C35.6299213,12.4015748 36.4566929,12.7165354 37.4015748,12.7165354 C38.4251969,12.7165354 39.2913386,12.3622047 40.0393701,11.6141732 C40.7874016,10.8661417 41.1417323,9.96062992 41.1417323,8.97637795 C41.1417323,7.95275591 40.7874016,7.08661417 40.0393701,6.33858268 C39.2913386,5.59055118 38.3858268,5.23622047 37.4015748,5.23622047 C36.3779528,5.23622047 35.511811,5.59055118 34.7637795,6.33858268 C34.015748,7.08661417 33.6614173,7.99212598 33.6614173,8.97637795 C33.6614173,9.92125984 33.976378,10.7480315 34.5669291,11.4173228 L26.023622,19.9606299 C24.8818898,18.9370079 23.5433071,18.3070866 21.9685039,18.3070866 L21.9685039,7.44094488 C22.8740157,7.36220472 23.6614173,7.00787402 24.3307087,6.37795276 C25.0787402,5.62992126 25.4330709,4.72440945 25.4330709,3.74015748 C25.4330709,2.71653543 25.0787402,1.8503937 24.3307087,1.1023622 C23.5826772,0.354330709 22.6771654,1.84741111e-13 21.6929134,1.84741111e-13 C20.6692913,1.84741111e-13 19.8031496,0.354330709 19.0551181,1.1023622 C18.3070866,1.8503937 17.9527559,2.75590551 17.9527559,3.74015748 C17.9527559,4.76377953 18.3070866,5.62992126 19.0551181,6.37795276 C19.7244094,7.04724409 20.4724409,7.4015748 21.4173228,7.44094488 L21.4173228,18.2677165 C19.8818898,18.3464567 18.5433071,18.8976378 17.3622047,19.9212598 L8.77952756,11.3779528 C9.37007874,10.7086614 9.68503937,9.88188976 9.68503937,8.93700787 C9.68503937,7.91338583 9.33070866,7.04724409 8.58267717,6.2992126 C7.87401575,5.59055118 6.96850394,5.19685039 5.94488189,5.19685039 C4.92125984,5.19685039 4.05511811,5.5511811 3.30708661,6.2992126 C2.55905512,7.04724409 2.20472441,7.95275591 2.20472441,8.93700787 C2.20472441,9.96062992 2.55905512,10.8267717 3.30708661,11.5748031 C4.05511811,12.3228346 4.96062992,12.6771654 5.94488189,12.6771654 C6.88976378,12.6771654 7.71653543,12.3622047 8.38582677,11.7716535 L16.8897638,20.3149606 C15.8661417,21.4566929 15.2362205,22.7952756 15.2362205,24.3700787 L7.44094488,24.3700787 C7.36220472,23.4645669 7.00787402,22.6771654 6.37795276,22.007874 C5.62992126,21.2598425 4.72440945,20.9055118 3.74015748,20.9055118 C2.71653543,20.9055118 1.8503937,21.2598425 1.1023622,22.007874 C0.354330709,22.7559055 -2.4158453e-13,23.6614173 -2.4158453e-13,24.6456693 C-2.4158453e-13,25.6299213 0.354330709,26.5354331 1.1023622,27.2834646 C1.8503937,28.0314961 2.75590551,28.3858268 3.74015748,28.3858268 C4.76377953,28.3858268 5.62992126,28.0314961 6.37795276,27.2834646 C7.04724409,26.6141732 7.4015748,25.8661417 7.44094488,24.9212598 L15.2362205,24.9212598 C15.3149606,26.4566929 15.8661417,27.7952756 16.8897638,28.976378 L8.38582677,37.480315 C7.71653543,36.8897638 6.88976378,36.5748031 5.94488189,36.5748031 C4.92125984,36.5748031 4.05511811,36.9291339 3.30708661,37.6771654 C2.55905512,38.4251969 2.20472441,39.3307087 2.20472441,40.3149606 C2.20472441,41.2992126 2.55905512,42.2047244 3.30708661,42.9527559 C4.05511811,43.7007874 4.96062992,44.0551181 5.94488189,44.0551181 C6.96850394,44.0551181 7.83464567,43.7007874 8.58267717,42.9527559 C9.33070866,42.2047244 9.68503937,41.2992126 9.68503937,40.3149606 C9.68503937,39.3700787 9.37007874,38.5433071 8.77952756,37.8740157 L17.3228346,29.4094488 C18.4645669,30.4330709 19.8031496,31.0629921 21.3779528,31.0629921 L21.3779528,41.8503937 C20.4724409,41.9291339 19.6850394,42.2834646 19.015748,42.9527559 C18.2677165,43.7007874 17.9133858,44.6062992 17.9133858,45.5905512 C17.9133858,46.5748031 18.2677165,47.480315 19.015748,48.2283465 C19.7637795,48.976378 20.6692913,49.3307087 21.6535433,49.3307087 C22.6771654,49.3307087 23.5433071,48.976378 24.2913386,48.2283465 C25.0393701,47.480315 25.3937008,46.5748031 25.3937008,45.5905512 C25.3937008,44.6062992 25.0393701,43.7007874 24.2913386,42.9527559 C23.6220472,42.2834646 22.8740157,41.9291339 21.9291339,41.8503937 L21.9291339,31.1023622 C23.4645669,31.023622 24.8031496,30.4724409 25.984252,29.4488189 L34.488189,37.9527559 C33.8976378,38.6220472 33.5826772,39.4488189 33.5826772,40.3937008 C33.5826772,41.4173228 33.9370079,42.2834646 34.6850394,43.0314961 C35.4330709,43.7795276 36.3385827,44.1338583 37.3228346,44.1338583 C38.3464567,44.1338583 39.2125984,43.7795276 39.9606299,43.0314961 C40.7086614,42.2834646 41.0629921,41.3779528 41.0629921,40.3937008 C41.0629921,39.4094488 40.7086614,38.503937 39.9606299,37.7559055 C39.2125984,37.007874 38.3070866,36.6535433 37.3228346,36.6535433 C36.3779528,36.6535433 35.5511811,36.9685039 34.8818898,37.5590551 L26.3779528,28.976378 C27.4015748,27.8346457 28.0314961,26.496063 28.0314961,24.9212598 L33.6614173,24.9212598 L33.6614173,24.9606299 Z M24.9606299,26.496063 L22.1259843,29.3307087 C21.9685039,29.5275591 21.5748031,29.5275591 21.4173228,29.3307087 L17.1259843,25.0787402 C16.9685039,24.9212598 16.9685039,24.5275591 17.1259843,24.3700787 C17.3228346,24.2125984 17.6771654,24.2125984 17.8346457,24.3700787 L21.7322835,28.2283465 L23.8188976,26.1417323 L21.3779528,23.6220472 C21.1811024,23.4645669 21.1811024,23.0708661 21.3779528,22.9133858 C21.5354331,22.7165354 21.9291339,22.7165354 22.0866142,22.9133858 L24.9212598,25.7480315 C25.1574803,25.9448819 25.1574803,26.2992126 24.9606299,26.496063 Z M26.3779528,25.0393701 C26.2204724,25.2362205 25.8267717,25.2362205 25.6692913,25.0393701 L21.7716535,21.1417323 L19.6850394,23.2283465 L22.1653543,25.7086614 C22.3622047,25.8661417 22.3622047,26.2598425 22.1653543,26.4173228 C22.007874,26.6141732 21.6141732,26.6141732 21.4566929,26.4173228 L18.6220472,23.5826772 C18.4251969,23.4251969 18.4251969,23.0314961 18.6220472,22.8740157 L21.4566929,20.0393701 C21.6141732,19.8425197 22.007874,19.8425197 22.1653543,20.0393701 L26.4566929,24.3307087 C26.5748031,24.5669291 26.5748031,24.8425197 26.3779528,25.0393701 Z" id="Shape"></path></g></g></g></g></svg>