<svg xmlns="http://www.w3.org/2000/svg" xmlns:xlink="http://www.w3.org/1999/xlink" width="33px" height="50px" viewBox="0 0 33 50"><title>poseidon</title><desc>Created with Sketch.</desc><g id="Page-1" stroke="none" stroke-width="1" fill="none" fill-rule="evenodd"><g id="resources" transform="translate(-1004.000000, -671.000000)" fill="#A2D729" fill-rule="nonzero"><g id="Group" transform="translate(779.000000, 296.000000)"><g id="poseidon" transform="translate(225.000000, 375.000000)"><path d="M32.5,5.97222222 L32.5,-1.49213975e-13 L26.8518519,-1.49213975e-13 L26.8518519,5.97222222 C26.8518519,10.7407407 23.6574074,14.9537037 19.0277778,16.2037037 L19.0277778,-1.49213975e-13 L13.4259259,-1.49213975e-13 L13.4259259,16.25 C8.7962963,14.9537037 5.60185185,10.787037 5.60185185,6.01851852 L5.60185185,-1.49213975e-13 L3.55271368e-15,-1.49213975e-13 L3.55271368e-15,5.97222222 C3.55271368e-15,13.8425926 5.64814815,20.6018519 13.4259259,21.9907407 L13.4259259,27.5462963 C5.64814815,28.9351852 3.55271368e-15,35.6481481 3.55271368e-15,43.5648148 L3.55271368e-15,49.537037 L5.60185185,49.537037 L5.60185185,43.5648148 C5.60185185,38.7962963 8.7962963,34.5833333 13.4259259,33.3333333 L13.4259259,49.5833333 L19.0277778,49.5833333 L19.0277778,33.287037 C23.6574074,34.5833333 26.8518519,38.75 26.8518519,43.5185185 L26.8518519,49.4907407 L32.4537037,49.4907407 L32.4537037,43.5185185 C32.4537037,35.6481481 26.8055556,28.8888889 19.0277778,27.5 L19.0277778,21.9907407 C26.8055556,20.6018519 32.5,13.8888889 32.5,5.97222222 L32.5,5.97222222 Z" id="Path"></path></g></g></g></g></svg>