<svg xmlns="http://www.w3.org/2000/svg" xmlns:xlink="http://www.w3.org/1999/xlink" width="80px" height="80px" viewBox="0 0 80 80"><title>reddit</title><desc>Created with Sketch.</desc><g id="Page-1" stroke="none" stroke-width="1" fill="none" fill-rule="evenodd"><g id="resources" transform="translate(-528.000000, -431.000000)" fill="#4D4D4D" fill-rule="nonzero"><g id="Group" transform="translate(98.000000, 296.000000)"><g id="reddit" transform="translate(410.000000, 115.000000)"><path d="M76.6157237,23.6052344 C86.4546655,28.0574748 94.307065,36.6737062 97.8026156,46.8944112 C100.671294,55.1286251 100.732071,64.3092005 97.9797374,72.5833526 C95.9098435,78.8675407 92.2284887,84.6082221 87.4062611,89.1351296 C82.3166143,93.9381316 75.9454392,97.3728164 69.1262503,98.9512433 C60.584465,100.958572 51.3810778,100.071249 43.4036513,96.4021446 C33.5334526,91.9446948 25.6619518,83.2919981 22.1733471,73.0365643 C19.7596286,66.0612718 19.3532904,58.4122393 20.9699608,51.2112091 C22.5484286,44.1056833 26.1412225,37.4655244 31.204822,32.2388302 C38.0274839,25.1037849 47.5764323,20.6602266 57.436212,20.081991 C63.9879818,19.6617717 70.6474139,20.8599176 76.6157237,23.6052344 Z M69.7861158,45.4132251 C67.9454383,44.9843236 66.1047609,44.5554221 64.2640834,44.1247842 C63.7743938,44.0153883 63.2916501,43.8538991 62.7880685,43.8365346 C62.2792775,43.8591084 61.8972501,44.2793277 61.7843784,44.7516402 C60.9387086,47.406662 60.0913024,50.0616837 59.2421597,52.714969 C55.2291356,52.8243649 51.1779087,53.7741993 47.7188243,55.8596677 C46.0882619,54.6076921 43.6797529,54.5104513 41.9936229,55.7068607 C40.3526416,56.797347 39.5295462,58.9609553 40.0643845,60.8640971 C40.3422227,61.9736844 41.0732842,62.9148366 41.9779945,63.5920495 C41.7383591,65.5264472 42.1620622,67.5250934 43.1744348,69.1920789 C44.7806864,71.867938 47.4739795,73.7085678 50.3009822,74.9084501 C55.017284,76.8584759 60.3292013,77.2057645 65.3146588,76.2055732 C69.0307434,75.4259102 72.7068888,73.8075451 75.325513,70.9840884 C77.1384066,69.0496906 78.2046103,66.3582036 77.8642587,63.6927632 C79.1944086,62.8071771 80.1095378,61.2860528 80.092173,59.6694242 C80.1355852,57.6586229 78.7446581,55.743326 76.8414671,55.11647 C75.2890467,54.5625446 73.5022004,54.9080968 72.2102532,55.9152339 C69.0029596,53.953053 65.2677736,52.9789083 61.5343241,52.7531707 C62.2306558,50.5739344 62.9252511,48.3929617 63.6215828,46.211989 C65.5282468,46.654782 67.4331743,47.1045208 69.3398383,47.543841 C69.4995952,49.4521921 71.1058468,51.1157047 73.0333486,51.2442015 C75.1431817,51.4855671 77.2373864,49.7960079 77.4127717,47.6723378 C77.6767179,45.6302805 76.0930407,43.6055877 74.0665591,43.3138652 C72.3700101,42.9908868 70.6022652,43.9146746 69.7861158,45.4132251 Z M54.9617164,69.0184346 C56.2675555,70.2113711 58.1394897,70.3798061 59.8273562,70.4127985 C61.6645607,70.4127985 63.7188262,70.2652009 65.1323275,68.945504 C65.6775848,68.4072066 66.6899574,68.7110842 66.8896535,69.4369174 C67.0650388,69.9283309 66.7872007,70.4336359 66.4017004,70.7323041 C64.9413138,72.0224814 62.9408795,72.4531194 61.0463709,72.5590424 C59.118869,72.6441281 57.1236442,72.5520966 55.319433,71.8036896 C54.5588512,71.4702925 53.8173707,71.0292359 53.2721134,70.3919612 C52.8275725,69.8449816 53.1262484,68.9437675 53.7878504,68.7336579 C54.1993981,68.5686958 54.654358,68.7232393 54.9617164,69.0184346 Z M56.7346708,62.0934989 C57.0472387,63.4982815 56.0157647,64.9933592 54.6092093,65.243407 C53.1331944,65.5837499 51.5113145,64.4811084 51.3272467,62.9704028 C51.1032397,61.5968762 52.1260313,60.2129309 53.4700731,59.9316271 C54.9183042,59.5635011 56.489826,60.6331502 56.7346708,62.0934989 Z M68.6469795,62.0761345 C68.9612839,63.4635527 67.9732221,64.9499481 66.5875046,65.2295154 C65.1479559,65.5941685 63.5347584,64.5835586 63.2673392,63.116264 C62.9582444,61.7392645 63.9376237,60.2858615 65.2886115,59.9542009 C66.752471,59.5235629 68.3917158,60.5862662 68.6469795,62.0761345 Z M75.2386886,47.3372042 C75.2213237,48.4328999 74.0752415,49.3080673 73.0125108,49.0476008 C71.9654084,48.8635378 71.2656037,47.6601827 71.6493676,46.6599914 C71.8577461,46.0418176 72.4238413,45.5660321 73.0663419,45.4566362 C74.1742213,45.2187435 75.3237765,46.2033068 75.2386886,47.3372042 Z"></path></g></g></g></g></svg>