<svg xmlns="http://www.w3.org/2000/svg" xmlns:xlink="http://www.w3.org/1999/xlink" width="56px" height="50px" viewBox="0 0 56 50"><title>stats</title><desc>Created with Sketch.</desc><g id="Page-1" stroke="none" stroke-width="1" fill="none" fill-rule="evenodd"><g id="resources" transform="translate(-799.000000, -671.000000)" fill="#A2D729" fill-rule="nonzero"><g id="Group" transform="translate(779.000000, 296.000000)"><g id="stats" transform="translate(20.000000, 375.000000)"><path d="M1.6,-3.65929509e-13 C2.45,-3.65929509e-13 3.2,0.75 3.2,1.6 L3.2,46.55 L54.35,46.55 C55.3,46.55 55.95,47.3 55.95,48.15 C56.05,49.15 55.3,49.9 54.45,49.9 L1.6,49.9 C0.65,49.9 6.21724894e-13,49.15 6.21724894e-13,48.3 L6.21724894e-13,1.6 C6.21724894e-13,0.65 0.75,-3.65929509e-13 1.6,-3.65929509e-13 Z M12.75,15.8 C14.1,15.8 15.1,16.85 15.1,18.15 L15.1,41.25 C15.05,42.6 13.95,43.6 12.7,43.6 L8.95,43.6 C7.6,43.6 6.6,42.55 6.6,41.25 L6.6,18.15 C6.6,16.8 7.65,15.8 8.95,15.8 L12.75,15.8 Z M24.05,25.3 C25.4,25.3 26.4,26.35 26.4,27.65 L26.4,41.25 C26.4,42.6 25.3,43.6 24.05,43.6 L20.25,43.6 C18.9,43.6 17.9,42.55 17.9,41.25 L17.9,27.65 C17.9,26.3 18.95,25.3 20.25,25.3 L24.05,25.3 Z M35.4,1.15 C36.75,1.15 37.75,2.2 37.75,3.5 L37.75,41.25 C37.75,42.6 36.7,43.6 35.4,43.6 L31.6,43.6 C30.25,43.6 29.25,42.55 29.25,41.25 L29.25,3.5 C29.25,2.15 30.3,1.15 31.6,1.15 L35.4,1.15 Z M46.8,11.1 C48.15,11.1 49.15,12.15 49.15,13.45 L49.15,41.25 C49.1,42.6 48.1,43.6 46.75,43.6 L43,43.6 C41.65,43.6 40.65,42.55 40.65,41.25 L40.65,13.45 C40.65,12.1 41.7,11.1 43,11.1 L46.8,11.1 Z" id="Combined-Shape"></path></g></g></g></g></svg>