<svg xmlns="http://www.w3.org/2000/svg" xmlns:xlink="http://www.w3.org/1999/xlink" width="80px" height="80px" viewBox="0 0 80 80"><title>twitter</title><desc>Created with Sketch.</desc><g id="Page-1" stroke="none" stroke-width="1" fill="none" fill-rule="evenodd"><g id="resources" transform="translate(-323.000000, -431.000000)" fill="#4D4D4D"><g id="Group" transform="translate(98.000000, 296.000000)"><g id="twitter" transform="translate(205.000000, 115.000000)"><path d="M60,20 C82.09139,20 100,37.90861 100,60 C100,82.09139 82.09139,100 60,100 C37.90861,100 20,82.09139 20,60 C20,37.90861 37.90861,20 60,20 Z M70.7204782,41.3549072 C68.3834675,41.1991065 65.9974083,41.8915541 64.1162589,43.2899136 C61.9783269,44.8469591 60.4953349,47.2782196 60.1106418,49.8970181 C59.9067544,51.1684289 59.98754,52.4715769 60.2472078,53.7285617 C56.5002968,53.5275595 52.7870463,52.6148751 49.3998234,50.9933935 C45.5451982,49.1757185 42.1271998,46.4665171 39.4256923,43.1745057 C38.9592519,44.0525678 38.5505154,44.9700609 38.3398959,45.9462197 C37.8186368,48.1610904 38.05907,50.559652 39.0602338,52.6081429 C39.8180793,54.2507826 41.0731406,55.6299074 42.5494005,56.6618468 C40.9510005,56.592602 39.3795291,56.1559753 37.9715523,55.3971681 C37.9600115,57.6466612 38.6870815,59.8990394 40.0719768,61.6763217 C41.5366958,63.5969021 43.7130972,64.9490985 46.0779982,65.4290031 C44.5911593,65.7992703 43.0293052,65.8887114 41.5193846,65.6040385 C42.1079651,67.4332543 43.2293456,69.0855113 44.7132993,70.306912 C46.453074,71.7562433 48.691988,72.5737162 50.9539836,72.6179559 C48.8997223,74.1951978 46.5694437,75.4233306 44.073747,76.1302042 C41.4636041,76.8928583 38.7005458,77.0996309 36,76.8024554 C37.4012447,77.6612828 38.839997,78.4691384 40.3672287,79.0836857 C45.7442769,81.3879975 51.8243518,81.8813665 57.5457003,80.7503687 C61.6926922,79.9415514 65.6492611,78.1652308 68.9893591,75.5733609 C76.3139163,69.8933669 80.5974743,60.5462856 80.1973934,51.2934542 C80.5724692,50.9943553 80.9485067,50.6962181 81.325506,50.4000044 C82.8315796,49.1535986 84.122225,47.6667597 85.2368734,46.0635511 C83.3903464,46.8627511 81.4361053,47.399398 79.4405097,47.651372 C81.5207378,46.3924637 83.132602,44.3834039 83.874098,42.0637043 C82.5978785,42.7821187 81.2754959,43.4293649 79.8732894,43.8640681 C79.0914007,44.1573967 78.2691191,44.3093504 77.463187,44.5141995 C75.7128333,42.669596 73.2671467,41.4914733 70.7204782,41.3549072 Z"></path></g></g></g></g></svg>