<svg xmlns="http://www.w3.org/2000/svg" xmlns:xlink="http://www.w3.org/1999/xlink" width="50px" height="50px" viewBox="0 0 50 50"><title>web wallet</title><desc>Created with Sketch.</desc><g id="Page-1" stroke="none" stroke-width="1" fill="none" fill-rule="evenodd"><g id="resources" transform="translate(-1004.000000, -431.000000)" fill="#A2D729" fill-rule="nonzero"><g id="Group" transform="translate(779.000000, 296.000000)"><g id="web-wallet" transform="translate(225.000000, 135.000000)"><path d="M40.0934579,0 L40.0934579,4.76635514 L9.95327103,4.76635514 C7.19626168,4.76635514 4.81308411,7.14953271 4.81308411,9.90654206 L4.81308411,9.90654206 L40.0934579,9.90654206 C44.5327103,9.90654206 48.6448598,12.9906542 49.6728972,17.4299065 L49.6728972,17.4299065 L40.0934579,17.4299065 C34.5794393,17.4299065 30.1401869,21.9158879 30.1401869,27.3831776 L30.1401869,27.3831776 L30.1401869,32.5233645 C30.1401869,37.6635514 34.5794393,42.4766355 40.0934579,42.4766355 L40.0934579,42.4766355 L49.6728972,42.4766355 C48.6448598,46.9158879 44.5327103,50 40.0934579,50 L40.0934579,50 L9.95327103,50 C4.43925234,50 1.88293825e-13,45.5607477 1.88293825e-13,40.0934579 L1.88293825e-13,40.0934579 L1.88293825e-13,9.95327103 C1.88293825e-13,4.43925234 4.43925234,0 9.95327103,0 L9.95327103,0 L40.0934579,0 Z M34.953271,27.3831776 C34.953271,24.6728972 37.3364486,22.2429907 40.0934579,22.6168224 L40.0934579,22.6168224 L50,22.6168224 L50,37.6635514 L40.0934579,37.6635514 C37.3364486,37.6635514 34.953271,35.2803738 34.953271,32.5233645 L34.953271,32.5233645 Z M42.4766355,27.3831776 L37.3364486,27.3831776 L37.3364486,32.5233645 L42.4766355,32.5233645 L42.4766355,27.3831776 Z" id="Combined-Shape"></path></g></g></g></g></svg>