<svg xmlns="http://www.w3.org/2000/svg" xmlns:xlink="http://www.w3.org/1999/xlink" width="92px" height="70px" viewBox="0 0 92 70"><title>Group 8</title><desc>Created with Sketch.</desc><g id="Page-1" stroke="none" stroke-width="1" fill="none" fill-rule="evenodd"><g id="Group-8" transform="translate(1.000000, 1.000000)"><text id="PirlApp" font-family="DiavloBook-Regular, Diavlo" font-size="30" font-weight="300"><tspan x="0" y="61" fill="#000000">Pirl</tspan><tspan x="42.03" y="61" fill="#A3CD39">App</tspan></text><g id="Group-7"><g id="Group-6" stroke="#AFAFAF" stroke-width="1.5"><path d="M30.7765152,13.6363636 L30.7765152,23.3881367 C30.7765152,24.2783442 30.0739317,25 29.2072511,25 L4.88365801,25 C4.01697739,25 3.31439394,24.2783442 3.31439394,23.3881367 C3.31439394,19.3270542 3.31439394,16.2812423 3.31439394,14.250701 C3.31439394,14.1141816 3.31439394,13.9094025 3.31439394,13.6363636" id="Path-3"></path><path d="M6.15530303,3.97727273 L6.15530303,0.946969697 C6.15530303,0.423972775 6.57927581,0 7.10227273,0 L26.9886364,0 C27.5116333,0 27.9356061,0.423972775 27.9356061,0.946969697 L27.9356061,3.97727273" id="Path-4"></path><path d="M9.97159091,13.3522727 L1,13.3522727 C0.44771525,13.3522727 6.76353751e-17,12.9045575 0,12.3522727 L0,4.97727273 C-6.76353751e-17,4.42498798 0.44771525,3.97727273 1,3.97727273 L33.0909091,3.97727273 C33.6431938,3.97727273 34.0909091,4.42498798 34.0909091,4.97727273 L34.0909091,12.4469697 C34.0909091,12.9992544 33.6431938,13.4469697 33.0909091,13.4469697 L24.1193182,13.4469697 L24.1193182,13.4469697" id="Path-5" stroke-linecap="round" stroke-linejoin="bevel"></path></g><path d="M16.9139112,8.33425491 C16.763348,8.33370126 16.617337,8.38586593 16.5011885,8.48170641 C16.4837456,8.4957822 16.467135,8.51085995 16.4514407,8.52686344 L13.4509099,11.5284232 C13.4197475,11.5597504 13.3916731,11.5940067 13.3670756,11.6307177 L13.3670756,11.6307177 C13.1957709,11.8900635 13.230831,12.2342327 13.4509099,12.4536814 L16.4173542,15.421143 C16.6772337,15.6379388 17.0595077,15.6206601 17.2987833,15.3813024 C17.5380588,15.1419448 17.5553317,14.7595398 17.3386102,14.4995711 L14.8374001,11.9910523 L16.9139112,9.91382919 L21.0973347,14.0940794 C21.2560468,14.2844629 21.5086835,14.3687753 21.749873,14.311851 C21.9910625,14.2549266 22.1793827,14.0665419 22.2362875,13.8252696 C22.2931923,13.5839974 22.2089088,13.3312741 22.0185907,13.1725075 L17.3763817,8.52594187 L17.3763817,8.52594187 C17.3606874,8.50993837 17.3440768,8.49486062 17.3266339,8.48078484 C17.2101028,8.38562042 17.0643422,8.33354523 16.9139112,8.33333333 L16.9139112,8.33425491 Z M17.1230363,11.4758936 C16.8588423,11.476671 16.6210559,11.6363622 16.5203015,11.8806746 C16.4195471,12.1249869 16.47561,12.4059446 16.6624083,12.5928388 L19.1626971,15.0976713 L17.0889498,17.1748944 L12.9101326,12.9946441 C12.650253,12.7778483 12.2679791,12.7951271 12.0287035,13.0344847 C11.789428,13.2738423 11.7721551,13.6562474 11.9888766,13.9162161 L16.6301643,18.5590954 C16.7523177,18.6813276 16.9180153,18.75 17.0907923,18.75 C17.2635693,18.75 17.429267,18.6813276 17.5514203,18.5590954 L17.5514203,18.5590954 L20.5519511,15.5603004 C20.5679491,15.5446007 20.5830217,15.5279844 20.5970927,15.5105355 C20.6922245,15.3939645 20.7442818,15.2481539 20.7444936,15.0976713 L20.7444936,15.0350044 C20.7297009,14.882008 20.6615354,14.7391051 20.5519511,14.6313559 L17.5855068,11.6638943 C17.4638899,11.5407675 17.2979112,11.4716966 17.1248788,11.4722045 L17.1230363,11.4758936 Z" id="rect4498-73-2" fill="#A3CD39" fill-rule="nonzero"></path></g></g></g></svg>