<svg xmlns="http://www.w3.org/2000/svg" xmlns:xlink="http://www.w3.org/1999/xlink" width="142px" height="142px" viewBox="0 0 142 142"><title>Group 8</title><desc>Created with Sketch.</desc><g id="Page-1" stroke="none" stroke-width="1" fill="none" fill-rule="evenodd"><g id="Group-8" transform="translate(2.000000, 21.000000)"><g id="Group-7"><g id="Group-6" stroke="#A3CD39" stroke-width="5"><path d="M123.106061,54.5454545 L123.106061,93.5525467 C123.106061,97.1133769 120.295727,100 116.829004,100 L19.534632,100 C16.0679096,100 13.2575758,97.1133769 13.2575758,93.5525467 C13.2575758,77.3082167 13.2575758,65.1249691 13.2575758,57.0028041 C13.2575758,56.4567264 13.2575758,55.6376099 13.2575758,54.5454545" id="Path-3"></path><path d="M24.6212121,15.9090909 L24.6212121,3.78787879 C24.6212121,1.6958911 26.3171032,0 28.4090909,0 L107.954545,0 C110.046533,0 111.742424,1.6958911 111.742424,3.78787879 L111.742424,15.9090909" id="Path-4"></path><path d="M39.8863636,53.4090909 L1,53.4090909 C0.44771525,53.4090909 6.76353751e-17,52.9613757 0,52.4090909 L0,16.9090909 C-6.76353751e-17,16.3568062 0.44771525,15.9090909 1,15.9090909 L135.363636,15.9090909 C135.915921,15.9090909 136.363636,16.3568062 136.363636,16.9090909 L136.363636,52.7878788 C136.363636,53.3401635 135.915921,53.7878788 135.363636,53.7878788 L96.4772727,53.7878788 L96.4772727,53.7878788" id="Path-5" stroke-linecap="round" stroke-linejoin="bevel"></path></g><path d="M67.6556447,33.3370196 C67.0533919,33.334805 66.4693479,33.5434637 66.0047539,33.9268257 C65.9349822,33.9831288 65.8685398,34.0434398 65.8057626,34.1074538 L53.8036394,46.1136928 C53.6789899,46.2390017 53.5666926,46.3760267 53.4683023,46.5228707 L53.4683023,46.5228707 C52.7830835,47.5602541 52.9233239,48.9369308 53.8036394,49.8147257 L65.6694167,61.6845721 C66.7089349,62.5517553 68.2380308,62.4826402 69.195133,61.5252098 C70.1522353,60.5677793 70.2213267,59.0381591 69.3544407,57.9982844 L59.3496006,47.9642092 L67.6556447,39.6553168 L84.3893386,56.3763178 C85.0241871,57.1378515 86.0347339,57.4751011 86.999492,57.2474038 C87.96425,57.0197066 88.7175309,56.2661674 88.9451501,55.3010785 C89.1727693,54.3359896 88.8356353,53.3250963 88.0743626,52.6900301 L69.5055267,34.1037675 L69.5055267,34.1037675 C69.4427495,34.0397535 69.3763071,33.9794425 69.3065354,33.9231394 C68.8404111,33.5424817 68.2573689,33.3341809 67.6556447,33.3333333 L67.6556447,33.3370196 Z M68.4921451,45.9035744 C67.4353691,45.9066841 66.4842235,46.5454487 66.081206,47.5226983 C65.6781884,48.4999478 65.90244,49.6237785 66.6496331,50.3713551 L76.6507882,60.3906851 L68.3557992,68.6995776 L51.6405304,51.9785766 C50.6010122,51.1113933 49.0719163,51.1805084 48.114814,52.1379389 C47.1577118,53.0953693 47.0886204,54.6249896 47.9555064,55.6648643 L66.5206573,74.2363817 C67.0092706,74.7253103 67.6720612,75 68.3631693,75 C69.0542773,75 69.7170679,74.7253103 70.2056813,74.2363817 L70.2056813,74.2363817 L82.2078044,62.2412015 C82.2717965,62.1784028 82.3320868,62.1119376 82.3883706,62.042142 C82.7688978,61.5758578 82.9771272,60.9926157 82.9779745,60.3906851 L82.9779745,60.1400175 C82.9188036,59.5280322 82.6461417,58.9564204 82.2078044,58.5254235 L70.3420272,46.6555771 C69.8555598,46.1630699 69.1916448,45.8867865 68.4995152,45.888818 L68.4921451,45.9035744 Z" id="rect4498-73-2" fill="#A3CD39" fill-rule="nonzero"></path></g></g></g></svg>