<svg xmlns="http://www.w3.org/2000/svg" xmlns:xlink="http://www.w3.org/1999/xlink" width="80px" height="80px" viewBox="0 0 80 80"><title>telegram</title><desc>Created with Sketch.</desc><g id="Page-1" stroke="none" stroke-width="1" fill="none" fill-rule="evenodd"><g id="resources" transform="translate(-528.000000, -671.000000)" fill="#4D4D4D" fill-rule="nonzero"><g id="Group" transform="translate(98.000000, 296.000000)"><g id="forum" transform="translate(410.000000, 355.000000)"><g id="telegram" transform="translate(20.000000, 20.000000)"><path d="M37.3909378,0.151738672 C41.7517387,-0.139936776 46.1631191,0.306006322 50.3738672,1.48029505 C53.4170706,2.32834563 56.3700738,3.50937829 59.1485774,5.01327713 C61.9726027,6.54330875 64.6027397,8.42065332 67.0002107,10.5551106 C67.887882,11.3239199 68.7182297,12.1551106 69.480295,13.0495258 C71.7462592,15.6493151 73.6598525,18.5424658 75.2817703,21.5822972 C75.997471,22.9462592 76.7157007,24.3161222 77.2484721,25.7643836 C79.0693361,30.4632244 80.0219178,35.5051633 79.9418335,40.5471022 C79.890411,45.2054795 78.9572181,49.8394099 77.2880927,54.1850369 C75.5734457,58.7346681 73.0191781,62.9580611 69.825922,66.6217071 C67.9157007,68.8767123 65.6691254,70.8290832 63.2564805,72.5293994 C60.6330875,74.3654373 57.7888303,75.883667 54.8155954,77.0689146 C50.8897787,78.6495258 46.7194942,79.6451001 42.4918862,79.9081138 C37.5460485,80.2351949 32.5428872,79.5869336 27.8347734,78.0391992 C24.9205479,77.0899895 22.1024236,75.8356164 19.4663857,74.2693361 C16.6659642,72.6086407 14.0771338,70.6014752 11.7251844,68.3523709 C7.23793467,63.888725 3.97639621,58.2727081 2.00210748,52.2773446 C0.637302424,48.1508957 -0.0446786091,43.7976818 0.026975764,39.4503688 C0.107060063,32.7300316 2.03667018,26.0821918 5.31928346,20.2351949 C7.07186512,17.1346681 9.24510011,14.280295 11.7116965,11.7142255 C16.34647,7.07945205 22.2061117,3.75890411 28.4467861,1.81833509 C31.3508957,0.92223393 34.3570074,0.350684932 37.3909378,0.151738672 M56.3262381,24.5336143 C44.0977871,29.25353 31.8693361,33.9726027 19.6408851,38.6916754 C18.9563751,38.9589041 18.2625922,39.204215 17.5940991,39.5110643 C17.1616438,39.7201264 16.7216017,39.9780822 16.456059,40.3928346 C16.2849315,40.6558483 16.1542677,40.9846154 16.2579557,41.2982086 C16.3734457,41.6952582 16.7561644,41.9279241 17.1169652,42.0754478 C20.6406744,43.1342466 24.1567966,44.225079 27.6754478,45.3024236 C35.423393,40.4282403 43.1704953,35.5532139 50.9159115,30.6765016 C51.2261328,30.512961 51.6155954,30.4286617 51.9452055,30.5854584 C52.0775553,30.6503688 52.112961,30.8366702 52.0337197,30.9563751 C51.891254,31.199157 51.66196,31.3702845 51.4604847,31.5599579 C45.3968388,37.1001054 39.3331928,42.6410959 33.2703899,48.1820864 C33.0048472,51.5936776 32.7334036,55.0052687 32.4720759,58.4177028 C33.6134879,58.3502634 34.5036881,57.5300316 35.2674394,56.7595364 C36.6263435,55.4453109 37.9869336,54.1327713 39.3433087,52.8177028 C42.5213909,55.1679663 45.6944152,57.5258166 48.8674394,59.881981 C49.3479452,60.2748156 49.9338251,60.5277134 50.5374078,60.6609062 C51.0583772,60.7747102 51.6484721,60.681981 52.0429926,60.3026344 C52.5782929,59.7909378 52.7881981,59.0474183 52.9458377,58.3468915 C55.1435195,48.001686 57.3412013,37.6573235 59.538883,27.312118 C59.6855638,26.6099052 59.7116965,25.8377239 59.3770285,25.1844046 C59.086196,24.6448894 58.5492097,24.1863014 57.9152792,24.1576396 C57.3614331,24.1323498 56.8328767,24.3338251 56.3262381,24.5336143 Z" id="Shape"></path></g></g></g></g></g></svg>