<?xml version="1.0" encoding="utf-8"?>
<!-- Generator: Adobe Illustrator 16.0.0, SVG Export Plug-In . SVG Version: 6.00 Build 0)  -->
<!DOCTYPE svg PUBLIC "-//W3C//DTD SVG 1.1//EN" "http://www.w3.org/Graphics/SVG/1.1/DTD/svg11.dtd">
<svg version="1.1" id="Layer_1" xmlns="http://www.w3.org/2000/svg" xmlns:xlink="http://www.w3.org/1999/xlink" x="0px" y="0px"
	 width="512.101px" height="149.42px" viewBox="0 0 512.101 149.42" enable-background="new 0 0 512.101 149.42"
	 xml:space="preserve">
<g>
	<path fill="#E7511E" d="M1.835,2.374v144.674h137.391V2.374H1.835z M37.31,129.153H19.572v-19.961H37.31V129.153z M37.31,84.616
		H19.572V64.653H37.31V84.616z M37.31,40.075H19.572V20.114H37.31V40.075z M79.32,129.305H61.583v-19.961H79.32V129.305z
		 M79.32,84.77H61.583V64.807H79.32V84.77z M79.32,40.227H61.583V20.264H79.32V40.227z M121.485,129.305h-17.741v-19.961h17.741
		V129.305z M121.485,84.77h-17.741V64.807h17.741V84.77z M121.485,40.227h-17.741V20.264h17.741V40.227z"/>
	<g>
		<path fill="#FFFFFF" d="M177.479,22.917v49.574h-12.941V22.917H177.479z"/>
		<path fill="#FFFFFF" d="M198.481,22.917l22.488,29.843V22.917h12.022v49.574h-11.315l-22.488-29.702v29.702h-12.093V22.917
			H198.481z"/>
		<path fill="#FFFFFF" d="M280.87,22.917v10.678h-14.852v38.896h-12.941V33.594h-14.709V22.917H280.87z"/>
		<path fill="#FFFFFF" d="M325.212,22.917v10.325h-26.166v9.265h23.62v10.253l-23.62,0.072v9.334h26.873v10.325h-39.814V22.917
			H325.212z"/>
		<path fill="#FFFFFF" d="M363.612,72.491l-7.213-13.719h-0.283h-9.335v13.719H333.84V22.917h22.276
			c13.154,0,20.65,6.366,20.65,17.396c0,7.496-3.112,13.014-8.84,15.982l10.325,16.195H363.612z M346.781,48.447h9.406
			c5.232,0,8.274-2.688,8.274-7.709c0-4.88-3.042-7.496-8.274-7.496h-9.406V48.447z"/>
		<path fill="#FFFFFF" d="M397.982,22.917v49.574h-12.941V22.917H397.982z"/>
		<path fill="#E7511E" d="M458.022,47.668c0,14.497-11.455,25.388-26.801,25.388c-15.347,0-26.803-10.891-26.803-25.388
			c0-14.427,11.456-25.104,26.803-25.104C446.567,22.564,458.022,33.312,458.022,47.668z M417.714,47.739
			c0,8.062,6.294,14.285,13.648,14.285c7.425,0,13.365-6.224,13.365-14.285s-5.94-14.145-13.365-14.145
			S417.714,39.677,417.714,47.739z"/>
		<path fill="#FFFFFF" d="M494.23,72.491l-7.212-13.719h-0.284h-9.335v13.719h-12.941V22.917h22.276
			c13.154,0,20.65,6.366,20.65,17.396c0,7.496-3.112,13.014-8.84,15.982l10.325,16.195H494.23z M477.399,48.447h9.406
			c5.232,0,8.274-2.688,8.274-7.709c0-4.88-3.042-7.496-8.274-7.496h-9.406V48.447z"/>
	</g>
	<g>
		<path fill="#FFFFFF" d="M179.732,93.334c-2.602,0-4.315,0.945-4.315,2.838c0,6.857,21.817,2.955,21.817,17.855
			c0,8.455-7.45,12.771-16.674,12.771c-6.918,0-14.132-2.541-19.098-6.621l4.197-8.455c4.258,3.666,10.702,6.268,15.019,6.268
			c3.193,0,5.203-1.184,5.203-3.371c0-7.035-21.817-2.779-21.817-17.443c0-7.744,6.563-12.652,16.556-12.652
			c6.09,0,12.239,1.893,16.556,4.67l-4.08,8.574C188.721,95.286,183.162,93.334,179.732,93.334z"/>
		<path fill="#FFFFFF" d="M244.894,105.692c0,12.121-9.579,21.227-22.41,21.227s-22.409-9.105-22.409-21.227
			c0-12.063,9.578-20.99,22.409-20.99S244.894,93.688,244.894,105.692z M211.19,105.75c0,6.74,5.262,11.943,11.411,11.943
			c6.209,0,11.176-5.203,11.176-11.943s-4.967-11.826-11.176-11.826C216.394,93.924,211.19,99.01,211.19,105.75z"/>
		<path fill="#FFFFFF" d="M261.095,84.997v32.225h17.562v9.225h-28.382V84.997H261.095z"/>
		<path fill="#FFFFFF" d="M302.131,117.694c4.789,0,8.101-3.252,8.101-8.633V84.997h10.82v24.064
			c0,10.939-7.332,17.857-18.98,17.857c-11.707,0-19.216-6.918-19.216-17.857V84.997h10.82v24.064
			C293.676,114.383,297.224,117.694,302.131,117.694z"/>
		<path fill="#FFFFFF" d="M360.314,84.997v8.928h-12.417v32.521h-10.82V93.924h-12.299v-8.928H360.314z"/>
		<path fill="#FFFFFF" d="M375.511,84.997v41.449h-10.82V84.997H375.511z"/>
		<path fill="#FFFFFF" d="M425.71,105.692c0,12.121-9.578,21.227-22.409,21.227s-22.409-9.105-22.409-21.227
			c0-12.063,9.578-20.99,22.409-20.99S425.71,93.688,425.71,105.692z M392.007,105.75c0,6.74,5.263,11.943,11.412,11.943
			c6.208,0,11.175-5.203,11.175-11.943s-4.967-11.826-11.175-11.826S392.007,99.01,392.007,105.75z"/>
		<path fill="#FFFFFF" d="M440.611,84.997l18.803,24.951V84.997h10.052v41.449h-9.46l-18.803-24.834v24.834h-10.111V84.997H440.611z
			"/>
		<path fill="#FFFFFF" d="M492.764,93.334c-2.602,0-4.316,0.945-4.316,2.838c0,6.857,21.818,2.955,21.818,17.855
			c0,8.455-7.45,12.771-16.675,12.771c-6.918,0-14.131-2.541-19.098-6.621l4.198-8.455c4.257,3.666,10.702,6.268,15.018,6.268
			c3.193,0,5.204-1.184,5.204-3.371c0-7.035-21.818-2.779-21.818-17.443c0-7.744,6.563-12.652,16.556-12.652
			c6.09,0,12.239,1.893,16.556,4.67l-4.08,8.574C501.751,95.286,496.192,93.334,492.764,93.334z"/>
	</g>
</g>
</svg>
