<svg xmlns="http://www.w3.org/2000/svg" xmlns:xlink="http://www.w3.org/1999/xlink" width="50px" height="50px" viewBox="0 0 50 50"><title>dscord</title><desc>Created with Sketch.</desc><g id="Page-1" stroke="none" stroke-width="1" fill="none" fill-rule="evenodd"><g id="home" transform="translate(-1055.000000, -5041.000000)" fill="#FFFFFF"><g id="footer" transform="translate(0.000000, 4894.000000)"><g id="Group-7" transform="translate(1055.000000, 147.000000)"><path d="M25,0 C38.8071187,0 50,11.1928813 50,25 C50,38.8071187 38.8071187,50 25,50 C11.1928813,50 0,38.8071187 0,25 C0,11.1928813 11.1928813,0 25,0 Z M20.6483333,15 C18.2166667,15.1166667 15.8616667,16.0233333 13.8866667,17.4283333 C13.475,17.68 13.3366667,18.1683333 13.13,18.5733333 C11.1783333,22.8383333 10.01,27.5016667 10,32.2033333 C11.6816667,34.6566667 14.6983333,35.9216667 17.6116667,35.975 C18.1516667,35.295 18.6983333,34.6216667 19.255,33.955 C17.5583333,33.37 15.8866667,32.4483333 14.8583333,30.9316667 C18.0383333,32.9566667 21.8633333,33.96 25.6266667,33.8 C28.765,33.6516667 31.8233333,32.6033333 34.4866667,30.9583333 C33.375,32.47 31.6916667,33.4633333 29.91,33.985 L29.91,33.985 L31.0058025,35.3261111 C31.1896296,35.5488889 31.375,35.7705556 31.5633333,35.99 C34.3916667,35.895 37.3016667,34.7283333 39.0233333,32.4066667 C39.3,32.065 39.15,31.595 39.1616667,31.195 C38.9683333,26.7216667 37.8016667,22.3116667 35.8966667,18.2666667 C35.7516667,17.975 35.6266667,17.6466667 35.3383333,17.4666667 C33.455,16.1233333 31.23,15.2183333 28.915,15.025 C28.575,14.9483333 28.3433333,15.2633333 28.0716667,15.4033333 C29.8966667,15.83 31.615,16.6683333 33.2116667,17.6416667 C33.7,17.9066667 34.065,18.3516667 34.5716667,18.5866667 C34.255,18.6816667 34.0316667,18.3616667 33.76,18.2566667 C30.115,16.3633333 25.875,15.71 21.815,16.245 C19.815,16.425 17.8616667,16.9733333 16.0183333,17.76 C15.43,18.0066667 14.8783333,18.3383333 14.2716667,18.5483333 C16.1666667,16.9983333 18.4566667,16.0033333 20.79,15.315 C20.755,15.2366667 20.6833333,15.0783333 20.6483333,15 Z M19.0316667,24.4733333 C20.1516667,24.0033333 21.5183333,24.555 22.0883333,25.6033333 C22.9916667,27.0966667 22.2533333,29.4266667 20.4633333,29.815 C18.9483333,30.2266667 17.4283333,28.8766667 17.3633333,27.375 C17.2283333,26.1866667 17.8933333,24.91 19.0316667,24.4733333 Z M28.1966667,24.4583333 C29.4816667,23.9383333 31.0016667,24.775 31.4166667,26.0583333 C32.035,27.58 31.1016667,29.62 29.4016667,29.8533333 C27.9133333,30.12 26.535,28.7816667 26.4833333,27.3266667 C26.3683333,26.1433333 27.0533333,24.8733333 28.1966667,24.4583333 Z" id="dscord"></path></g></g></g></g></svg>