<svg xmlns="http://www.w3.org/2000/svg" xmlns:xlink="http://www.w3.org/1999/xlink" width="50px" height="50px" viewBox="0 0 50 50"><title>git</title><desc>Created with Sketch.</desc><g id="Page-1" stroke="none" stroke-width="1" fill="none" fill-rule="evenodd"><g id="home" transform="translate(-1195.000000, -5041.000000)" fill="#FFFFFF" fill-rule="nonzero"><g id="footer" transform="translate(0.000000, 4894.000000)"><g id="Group-7" transform="translate(1055.000000, 147.000000)"><path d="M186.646418,12.7888814 C184.410849,8.8624498 181.378441,5.75388846 177.548399,3.46249612 C173.717786,1.1709869 169.535898,0.0255244755 164.999772,0.0255244755 C160.464216,0.0255244755 156.28096,1.17133752 152.451145,3.46249612 C148.62076,5.75377159 145.588467,8.8624498 143.352898,12.7888814 C141.117671,16.7151961 140,21.0027621 140,25.6514626 C140,31.2356065 141.589343,36.2570118 144.768827,40.716964 C147.947969,45.1772669 152.05495,48.2636225 157.089427,49.9763816 C157.675455,50.0878775 158.109275,50.0094564 158.391343,49.7431051 C158.673526,49.4764032 158.814446,49.1423831 158.814446,48.7424471 C158.814446,48.6757132 158.808859,48.0753417 158.798028,46.9406315 C158.786855,45.8059213 158.78161,44.8160155 158.78161,43.9713816 L158.032886,44.1041482 C157.555513,44.193789 156.953296,44.2317724 156.226234,44.2210202 C155.499514,44.2106186 154.745089,44.1325481 153.963986,43.9873931 C153.18254,43.8435236 152.455706,43.5098541 151.782914,42.9870857 C151.110465,42.4643172 150.633092,41.7800317 150.35091,40.9352809 L150.025402,40.1674319 C149.808435,39.6562338 149.466852,39.0883528 149.000196,38.4658925 C148.53354,37.8428479 148.06164,37.4204725 147.584267,37.1980651 L147.356355,37.0308213 C147.204489,36.919676 147.063569,36.7856238 146.933252,36.6300672 C146.803049,36.4745106 146.705568,36.3188371 146.640466,36.1629298 C146.575251,36.0069057 146.629293,35.8789309 146.803163,35.7785379 C146.977033,35.6781448 147.291253,35.6294092 147.747192,35.6294092 L148.397979,35.729101 C148.832027,35.8182743 149.368915,36.0846256 150.009326,36.529791 C150.649396,36.9746059 151.175567,37.5528885 151.587952,38.2644052 C152.087329,39.176708 152.688977,39.8718626 153.394604,40.3502197 C154.099661,40.8285768 154.810533,41.0673463 155.526535,41.0673463 C156.242538,41.0673463 156.860945,41.0117152 157.381985,40.9010374 C157.902455,40.7897753 158.390773,40.6225315 158.846712,40.4002409 C159.042016,38.909188 159.573773,37.7637256 160.441527,36.9630355 C159.204713,36.8298015 158.092743,36.6291322 157.105047,36.3623135 C156.117921,36.0951441 155.097846,35.661549 154.045505,35.0603594 C152.992594,34.459988 152.119139,33.7144615 151.424913,32.8250657 C150.730573,31.9352023 150.160736,30.7669498 149.716199,29.3213601 C149.271433,27.875186 149.048994,26.2069552 149.048994,24.3162 C149.048994,21.6240536 149.906372,19.3331287 151.620788,17.4421399 C150.817679,15.4181506 150.893498,13.1491977 151.848472,10.6355148 C152.477824,10.4350794 153.411136,10.5854936 154.64795,11.0858226 C155.884993,11.5863854 156.790713,12.0151888 157.366023,12.3707134 C157.941333,12.7261211 158.402288,13.0273002 158.749572,13.2715627 C160.768175,12.6933969 162.851309,12.4042556 164.999544,12.4042556 C167.147779,12.4042556 169.231369,12.6933969 171.250086,13.2715627 L172.487014,12.4711064 C173.332877,11.9370014 174.331746,11.4475415 175.481227,11.0026098 C176.631391,10.5579118 177.510888,10.43543 178.118806,10.6358655 C179.094987,13.1496652 179.181979,15.4185013 178.378642,17.4424905 C180.092943,19.3334794 180.950664,21.6249886 180.950664,24.3165506 C180.950664,26.2073058 180.727427,27.8807959 180.283345,29.3380728 C179.838694,30.7955835 179.263954,31.9626672 178.558897,32.8417784 C177.853042,33.7207726 176.974,34.4604555 175.921659,35.0607101 C174.86909,35.6614321 173.848673,36.0950272 172.861547,36.3621966 C171.873965,36.629366 170.761995,36.8301521 169.525181,36.9636199 C170.653227,37.9642779 171.217364,39.5438029 171.217364,41.7014937 L171.217364,48.7415121 C171.217364,49.1414481 171.353039,49.4753514 171.624619,49.7421701 C171.895856,50.0085214 172.324203,50.0869425 172.910231,49.9753298 C177.945392,48.2628044 182.052373,45.1763319 185.231401,40.716029 C188.410087,36.2560768 190,31.2346715 190,25.6505276 C189.99886,21.0024115 188.880619,16.7151961 186.646418,12.7888814 Z" id="git"></path></g></g></g></g></svg>