<svg xmlns="http://www.w3.org/2000/svg" xmlns:xlink="http://www.w3.org/1999/xlink" width="50px" height="50px" viewBox="0 0 50 50"><title>reddit</title><desc>Created with Sketch.</desc><g id="Page-1" stroke="none" stroke-width="1" fill="none" fill-rule="evenodd"><g id="home" transform="translate(-1125.000000, -5041.000000)" fill="#FFFFFF" fill-rule="nonzero"><g id="footer" transform="translate(0.000000, 4894.000000)"><g id="Group-7" transform="translate(1055.000000, 147.000000)"><path d="M105.384827,2.25327148 C111.534166,5.03592178 116.441916,10.4210664 118.626635,16.809007 C120.419559,21.9553907 120.457544,27.6932503 118.737336,32.8645954 C117.443652,36.7922129 115.142805,40.3801388 112.128913,43.209456 C108.947884,46.2113323 104.9659,48.3580102 100.703906,49.3445271 C95.3652907,50.5991073 89.6131736,50.0445307 84.627282,47.7513404 C78.4584079,44.9654343 73.5387199,39.5574988 71.3583419,33.1478527 C69.8497679,28.7882948 69.5958065,24.0076495 70.6062255,19.5070057 C71.5927678,15.0660521 73.8382641,10.9159527 77.0030137,7.64926887 C81.2671775,3.18986555 87.2352702,0.412641633 93.3976325,0.0512443824 C97.4924886,-0.211392659 101.654634,0.537448492 105.384827,2.25327148 Z M101.116322,15.8832657 C99.965899,15.6152023 98.8154756,15.3471388 97.6650522,15.0779901 C97.3589961,15.0096177 97.0572813,14.9086869 96.7425428,14.8978341 C96.4245484,14.9119427 96.1857813,15.1745798 96.1152365,15.4697751 C95.5866929,17.1291637 95.057064,18.7885523 94.5263498,20.4468556 C92.0182097,20.5152281 89.486193,21.1088746 87.3242652,22.4122923 C86.3051637,21.6298076 84.7998456,21.569032 83.7460143,22.3167879 C82.720401,22.9983419 82.2059664,24.3505971 82.5402403,25.5400607 C82.7138892,26.2335527 83.1708026,26.8217729 83.7362466,27.2450309 C83.5864745,28.4540295 83.8512889,29.7031834 84.4840218,30.7450493 C85.487929,32.4174612 87.1712372,33.5678549 88.9381139,34.3177813 C91.8858025,35.5365474 95.2057508,35.7536028 98.3216617,35.1284833 C100.644215,34.6411939 102.941806,33.6297157 104.578446,31.8650552 C105.711504,30.6560566 106.377881,28.9738772 106.165162,27.307977 C106.996505,26.7544857 107.568461,25.803783 107.557608,24.7933901 C107.584741,23.5366393 106.715411,22.3395787 105.525917,21.9477937 C104.555654,21.6015904 103.438875,21.8175605 102.631408,22.4470212 C100.62685,21.2206581 98.2923585,20.6118177 95.9589525,20.4707317 C96.3941599,19.108709 96.8282819,17.7456011 97.2634893,16.3824931 C98.4551543,16.6592388 99.645734,16.9403255 100.837399,17.2149006 C100.937247,18.4076201 101.941154,19.4473155 103.145843,19.527626 C104.464489,19.6784795 105.773367,18.6225049 105.882982,17.2952111 C106.047949,16.0189253 105.05815,14.7534923 103.791599,14.5711658 C102.731256,14.3693042 101.626416,14.9466716 101.116322,15.8832657 Z M91.8510728,30.6365216 C92.6672222,31.3821069 93.8371811,31.4873788 94.8920976,31.5079991 C96.0403504,31.5079991 97.3242664,31.4157505 98.2077047,30.59094 C98.5484905,30.2545041 99.1812234,30.4444276 99.3060335,30.8980734 C99.4156493,31.2052068 99.2420005,31.5210224 99.0010627,31.7076901 C98.0883211,32.5140509 96.8380497,32.7831996 95.6539818,32.8494015 C94.4492932,32.9025801 93.2022776,32.8450604 92.0746456,32.377306 C91.599282,32.1689328 91.1358567,31.8932724 90.7950709,31.4949758 C90.5172328,31.1531135 90.7039053,30.5898547 91.1174065,30.4585362 C91.3746238,30.3554349 91.6589738,30.4520245 91.8510728,30.6365216 Z M92.9591693,26.3084368 C93.1545242,27.186426 92.5098529,28.1208495 91.6307558,28.2771294 C90.7082465,28.4898437 89.6945715,27.8006928 89.5795292,26.8565017 C89.4395248,25.9980476 90.0787695,25.1330818 90.9187957,24.9572669 C91.8239401,24.7271882 92.8061412,25.3957189 92.9591693,26.3084368 Z M100.404362,26.2975841 C100.600802,27.1647204 99.9832638,28.0937175 99.1171904,28.2684472 C98.2174724,28.4963553 97.209224,27.8647241 97.042087,26.947665 C96.8489027,26.0870403 97.4610148,25.1786634 98.3053822,24.9713755 C99.2202944,24.7022268 100.244822,25.3664164 100.404362,26.2975841 Z M104.52418,17.0857526 C104.513327,17.7705624 103.797026,18.3175421 103.132819,18.1547505 C102.47838,18.0397111 102.041002,17.2876142 102.280855,16.6624946 C102.411091,16.276136 102.764901,15.9787701 103.166464,15.9103976 C103.858888,15.7617147 104.57736,16.3770667 104.52418,17.0857526 Z" id="reddit"></path></g></g></g></g></svg>