<svg xmlns="http://www.w3.org/2000/svg" xmlns:xlink="http://www.w3.org/1999/xlink" width="50px" height="50px" viewBox="0 0 50 50"><title>twitter</title><desc>Created with Sketch.</desc><g id="Page-1" stroke="none" stroke-width="1" fill="none" fill-rule="evenodd"><g id="home" transform="translate(-1265.000000, -5041.000000)" fill="#FFFFFF"><g id="footer" transform="translate(0.000000, 4894.000000)"><g id="Group-7" transform="translate(1055.000000, 147.000000)"><path d="M235,0 C248.807119,0 260,11.1928813 260,25 C260,38.8071187 248.807119,50 235,50 C221.192881,50 210,38.8071187 210,25 C210,11.1928813 221.192881,0 235,0 Z M241.700299,13.346817 C240.239667,13.2494416 238.74838,13.6822213 237.572662,14.556196 C236.236454,15.5293494 235.309584,17.0488873 235.069151,18.6856363 C234.941722,19.4802681 234.992212,20.2947355 235.154505,21.080351 C232.812685,20.9547247 230.491904,20.3842969 228.37489,19.370871 C225.965749,18.2348241 223.8295,16.5415732 222.141058,14.4840661 C221.849532,15.0328549 221.594072,15.6062881 221.462435,16.2163873 C221.136648,17.6006815 221.286919,19.0997825 221.912646,20.3800893 C222.3863,21.4067391 223.170713,22.2686922 224.093375,22.9136542 C223.094375,22.8703762 222.112206,22.5974846 221.23222,22.1232301 C221.225007,23.5291632 221.679426,24.9368996 222.544985,26.047701 C223.460435,27.2480638 224.820686,28.0931865 226.298749,28.393127 C225.369475,28.6245439 224.393316,28.6804446 223.449615,28.5025241 C223.817478,29.645784 224.518341,30.6784446 225.445812,31.44182 C226.533171,32.3476521 227.932493,32.8585726 229.34624,32.8862225 C228.062326,33.8719986 226.605902,34.6395816 225.046092,35.0813776 C223.414753,35.5580365 221.687841,35.6872693 220,35.5015346 C220.875778,36.0383018 221.774998,36.5432115 222.729518,36.9273036 C226.090173,38.3674984 229.89022,38.675854 233.466063,37.9689804 C236.057933,37.4634696 238.530788,36.3532693 240.618349,34.7333506 C245.196198,31.1833543 247.873421,25.3414285 247.623371,19.5584089 C247.857793,19.371472 248.092817,19.1851363 248.328441,19.0000027 C249.269737,18.2209992 250.076391,17.2917248 250.773046,16.2897194 C249.618966,16.7892194 248.397566,17.1246237 247.150319,17.2821075 C248.450461,16.4952898 249.457876,15.2396274 249.921311,13.7898152 C249.123674,14.2388242 248.297185,14.6433531 247.420806,14.9150426 C246.932125,15.0983729 246.418199,15.193344 245.914492,15.3213747 C244.820521,14.1684975 243.291967,13.4321708 241.700299,13.346817 Z" id="twitter"></path></g></g></g></g></svg>